<?xml version="1.0" standalone="no"?>
<!DOCTYPE svg PUBLIC "-//W3C//DTD SVG 20010904//EN"
 "http://www.w3.org/TR/2001/REC-SVG-20010904/DTD/svg10.dtd">
<svg version="1.0" xmlns="http://www.w3.org/2000/svg"
 width="121.000000pt" height="121.000000pt" viewBox="0 0 121.000000 121.000000"
 preserveAspectRatio="xMidYMid meet">

<g transform="translate(0.000000,121.000000) scale(0.100000,-0.100000)"
fill="#000000" stroke="none">
<path d="M525 1199 c-62 -9 -159 -38 -152 -45 2 -2 24 3 48 12 26 10 89 18
154 21 104 5 157 -2 250 -32 17 -6 18 -5 3 4 -49 32 -212 54 -303 40z"/>
<path d="M294 1114 c-18 -14 -18 -15 4 -4 12 6 22 13 22 15 0 8 -5 6 -26 -11z"/>
<path d="M890 1126 c0 -3 9 -10 20 -16 11 -6 20 -8 20 -6 0 3 -9 10 -20 16
-11 6 -20 8 -20 6z"/>
<path d="M206 1049 c-31 -28 -66 -65 -77 -83 -14 -21 -9 -17 16 11 20 24 57
61 83 83 26 22 44 40 40 40 -3 0 -32 -23 -62 -51z"/>
<path d="M977 1066 c24 -21 61 -58 84 -84 23 -26 32 -33 21 -17 -22 32 -93
102 -127 124 -11 8 -1 -3 22 -23z"/>
<path d="M90 910 c-6 -11 -8 -20 -6 -20 3 0 10 9 16 20 6 11 8 20 6 20 -3 0
-10 -9 -16 -20z"/>
<path d="M1110 910 c6 -11 13 -20 16 -20 2 0 0 9 -6 20 -6 11 -13 20 -16 20
-2 0 0 -9 6 -20z"/>
<path d="M330 890 c-29 -29 -26 -74 6 -99 32 -25 52 -26 82 -5 28 20 31 83 4
107 -25 23 -68 21 -92 -3z"/>
<path d="M36 793 c-26 -80 -36 -181 -25 -258 9 -70 37 -170 45 -162 2 2 -3 24
-13 48 -24 63 -24 305 0 368 10 24 15 46 13 48 -2 2 -11 -17 -20 -44z"/>
<path d="M1155 825 c47 -147 47 -293 0 -440 -6 -17 -5 -18 4 -3 22 33 44 145
44 223 0 78 -22 190 -44 223 -9 15 -10 14 -4 -3z"/>
<path d="M706 710 c-16 -5 -39 -19 -52 -31 l-24 -22 0 26 c0 26 -2 27 -55 27
l-55 0 0 -200 0 -200 60 0 60 0 0 130 c0 126 1 132 25 155 13 14 34 25 45 25
11 0 32 -11 45 -25 24 -23 25 -30 25 -150 l0 -125 60 0 60 0 0 143 c0 174 -14
214 -79 240 -45 18 -71 20 -115 7z"/>
<path d="M320 515 l0 -195 60 0 60 0 0 195 0 195 -60 0 -60 0 0 -195z"/>
<path d="M90 300 c6 -11 13 -20 16 -20 2 0 0 9 -6 20 -6 11 -13 20 -16 20 -2
0 0 -9 6 -20z"/>
<path d="M1110 300 c-6 -11 -8 -20 -6 -20 3 0 10 9 16 20 6 11 8 20 6 20 -3 0
-10 -9 -16 -20z"/>
<path d="M121 255 c22 -34 92 -105 124 -127 17 -11 9 -2 -17 21 -26 23 -63 60
-84 84 -20 23 -31 33 -23 22z"/>
<path d="M1017 188 c-43 -44 -65 -71 -50 -60 37 27 148 146 132 141 -2 -1 -39
-37 -82 -81z"/>
<path d="M280 106 c0 -3 9 -10 20 -16 11 -6 20 -8 20 -6 0 3 -9 10 -20 16 -11
6 -20 8 -20 6z"/>
<path d="M904 94 c-18 -14 -18 -15 4 -4 12 6 22 13 22 15 0 8 -5 6 -26 -11z"/>
<path d="M382 51 c33 -22 145 -44 223 -44 78 0 190 22 223 44 15 9 14 10 -3 4
-147 -47 -293 -47 -440 0 -17 6 -18 5 -3 -4z"/>
</g>
</svg>
